<?xml version="1.0" standalone="no"?>
<!DOCTYPE svg PUBLIC "-//W3C//DTD SVG 20010904//EN"
 "http://www.w3.org/TR/2001/REC-SVG-20010904/DTD/svg10.dtd">
<svg version="1.0" xmlns="http://www.w3.org/2000/svg"
 width="460.000000pt" height="460.000000pt" viewBox="0 0 460.000000 460.000000"
 preserveAspectRatio="xMidYMid meet">
<metadata>
Created by potrace 1.14, written by Peter Selinger 2001-2017
</metadata>
<g transform="translate(0.000000,460.000000) scale(0.100000,-0.100000)"
fill="#000000" stroke="none">
<path d="M0 2300 l0 -2300 860 0 c853 0 860 0 860 20 0 13 -7 20 -20 20 -11 0
-20 6 -20 13 0 7 -14 26 -30 42 -23 22 -30 38 -30 67 0 31 -4 38 -20 38 -13 0
-22 9 -26 25 -7 30 -8 30 -39 9 -30 -19 -32 -34 -6 -34 18 0 30 -21 46 -77 7
-25 -12 -42 -21 -18 -4 10 -14 15 -24 12 -11 -3 -31 7 -50 24 -37 34 -37 34
-43 12 -2 -10 -2 2 -1 27 3 36 2 40 -5 20 -5 -14 -9 -19 -10 -12 -1 7 -6 10
-11 7 -6 -3 -10 -2 -10 4 0 5 5 11 12 13 9 3 8 13 -4 38 -12 25 -14 39 -6 53
7 14 7 22 -1 26 -14 9 -9 65 8 85 8 9 32 21 55 27 22 6 55 19 72 30 35 21 48
24 39 9 -4 -6 5 -10 19 -10 27 0 34 18 15 37 -14 14 31 63 56 63 17 0 146 -74
202 -116 17 -13 36 -24 42 -24 6 0 11 -4 11 -10 0 -5 5 -10 12 -10 6 0 26 -11
44 -25 18 -14 37 -25 42 -25 5 0 21 -11 35 -24 14 -13 44 -32 66 -42 23 -10
41 -21 41 -25 0 -4 8 -9 18 -13 20 -6 50 -25 70 -44 7 -6 20 -12 28 -12 8 0
14 -4 14 -10 0 -5 6 -10 14 -10 8 0 16 -6 19 -13 3 -8 23 -23 46 -33 30 -14
38 -23 32 -33 -8 -12 -15 -11 -45 7 -21 13 -38 17 -42 11 -8 -14 15 -39 36
-39 20 0 32 -23 24 -45 -9 -23 5 -37 27 -25 13 7 19 7 19 0 0 -5 19 -10 43 -9
23 0 36 3 30 6 -22 8 -14 23 12 23 14 0 28 -7 31 -15 5 -11 23 -15 71 -15 36
0 62 4 59 9 -5 8 -112 75 -194 121 -15 8 -42 26 -61 39 -19 14 -74 45 -122 70
-48 26 -99 56 -112 68 -14 11 -34 24 -46 28 -11 3 -47 24 -80 46 -32 21 -62
39 -65 39 -4 0 -21 13 -39 30 -18 16 -37 30 -43 30 -6 0 -30 14 -53 30 -23 17
-66 41 -96 55 -30 13 -55 28 -55 32 0 5 27 35 60 68 106 104 105 102 105 445
l0 295 28 13 c58 28 81 106 57 194 -9 32 -51 79 -79 90 -5 1 -12 46 -15 98 -6
95 -13 209 -21 350 -2 41 -6 152 -10 245 -3 94 -8 195 -10 225 -2 30 -7 134
-10 230 -6 163 -14 226 -34 275 -18 44 -46 141 -43 151 1 6 -5 17 -13 24 -8 7
-15 20 -15 29 -1 9 -9 39 -18 67 -15 44 -16 55 -5 70 14 19 8 54 -11 66 -32
21 -136 31 -303 30 l-182 -2 -5 32 c-20 126 -37 260 -46 358 -6 63 -15 142
-20 175 -5 33 -18 143 -30 245 -11 102 -23 195 -25 208 l-5 22 -440 0 c-503 0
-451 12 -426 -102 8 -35 17 -85 20 -113 5 -43 4 -47 -8 -35 -18 19 -43 101
-51 165 -11 88 -9 85 -81 85 l-64 0 0 -2300z m428 2163 c3 -61 1 -85 -6 -78
-6 6 -13 28 -17 51 -3 22 -10 56 -15 74 -7 23 -6 38 2 47 20 25 31 -4 36 -94z
m670 -908 c48 -15 70 -30 59 -42 -18 -18 -86 -21 -139 -6 -61 17 -73 33 -35
51 31 15 56 14 115 -3z m-723 -11 c95 -10 122 -34 55 -49 -36 -8 -39 -26 -8
-40 34 -15 34 -41 0 -56 l-30 -13 22 -18 c20 -18 20 -19 2 -31 -10 -7 -30 -22
-44 -34 -14 -13 -31 -23 -38 -23 -21 0 -17 -10 11 -32 30 -23 31 -28 5 -55
-19 -21 -40 -21 -105 2 -11 3 -2 -5 20 -19 22 -14 44 -27 49 -29 4 -1 10 -24
11 -49 3 -45 2 -47 -28 -54 l-31 -6 27 -15 c35 -18 35 -41 0 -45 -39 -4 -139
17 -168 36 -28 18 -33 36 -10 36 11 0 14 7 9 24 -4 18 0 28 15 38 l20 12 -22
25 -22 24 43 -6 42 -5 -24 19 c-18 14 -24 28 -23 54 1 33 7 39 35 36 6 -1 12
5 12 14 0 8 -4 15 -10 15 -5 0 -17 16 -25 37 -14 33 -14 38 1 54 12 14 13 22
4 38 -6 12 -8 21 -5 21 2 0 -4 15 -15 33 -29 47 -26 57 18 58 20 0 46 4 57 9
11 5 36 7 55 5 19 -3 62 -7 95 -11z m763 -571 c19 -16 22 -36 31 -168 6 -82
11 -223 12 -312 1 -148 -1 -165 -19 -188 -11 -14 -22 -25 -24 -25 -3 0 -13 30
-22 68 -9 37 -21 84 -27 105 -5 21 -14 77 -20 125 -5 53 -15 91 -23 96 -11 8
-11 15 -1 40 7 17 14 75 14 130 1 55 4 110 7 123 7 28 42 31 72 6z m42 -800
c0 -21 2 -57 6 -80 5 -36 3 -43 -10 -43 -21 0 -56 58 -56 93 0 39 17 67 41 67
16 0 19 -7 19 -37z m16 -360 c-3 -8 -1 -11 4 -8 6 3 10 1 10 -4 0 -14 -27 -14
-35 -1 -10 16 3 42 16 35 6 -4 8 -14 5 -22z m-26 -223 c0 -5 -2 -10 -4 -10 -3
0 -8 5 -11 10 -3 6 -1 10 4 10 6 0 11 -4 11 -10z m-910 -65 c11 -13 10 -14 -4
-9 -9 3 -16 10 -16 15 0 13 6 11 20 -6z m980 -57 c-1 -26 -28 -48 -59 -48 -35
0 -50 22 -31 45 15 19 90 21 90 3z m-11 -183 c2 -13 -1 -16 -14 -11 -9 3 -19
6 -21 6 -2 0 -4 6 -4 14 0 21 34 12 39 -9z"/>
<path d="M3095 4480 c-2 -4 21 -8 52 -9 31 -1 55 0 52 2 -8 8 -99 14 -104 7z"/>
<path d="M3227 4478 c2 -5 69 -8 149 -8 119 0 144 -3 144 -14 0 -12 -22 -15
-125 -13 -69 1 -125 0 -125 -3 0 -4 -16 -4 -35 -2 -19 2 -32 8 -29 13 3 5 1 9
-5 9 -5 0 -11 -4 -13 -9 -2 -6 -162 -11 -405 -12 -334 -1 -403 -4 -403 -15 0
-8 -4 -14 -10 -14 -5 0 -9 6 -7 12 1 10 -40 12 -183 10 -101 -2 -187 -5 -190
-7 -7 -4 -4 -547 4 -670 11 -175 35 -632 46 -870 15 -352 40 -830 48 -929 l7
-88 70 -28 c74 -30 254 -100 628 -244 110 -42 183 -70 362 -141 94 -36 186
-72 205 -80 19 -7 84 -32 144 -55 96 -37 111 -41 133 -29 20 11 30 11 56 0 62
-25 65 -25 70 6 4 15 9 73 12 128 3 55 8 117 11 138 3 22 1 37 -6 37 -5 0 -10
7 -10 15 0 8 5 15 11 15 6 0 4 7 -5 15 -18 19 -27 19 -20 1 4 -11 0 -13 -14
-9 -24 6 -28 20 -30 98 0 44 2 53 8 35 7 -22 8 -20 7 12 0 29 -3 35 -13 27
-10 -8 -11 -5 -7 13 3 13 10 28 15 35 5 7 7 17 3 22 -8 14 -8 117 0 186 6 46
10 55 24 51 14 -5 14 -4 -1 7 -14 11 -16 25 -12 83 3 38 9 71 12 74 4 3 8 41
8 85 2 153 6 210 15 227 5 10 5 18 0 20 -5 2 -7 16 -4 31 4 20 10 26 21 22 11
-4 12 -2 4 8 -15 17 -14 110 3 227 2 19 7 60 10 90 2 30 6 73 9 95 11 110 19
229 19 308 0 48 4 87 8 87 5 0 9 16 9 35 0 19 4 35 9 35 5 0 7 10 3 22 -5 21
-6 21 -14 2 -5 -12 -6 -6 -2 16 4 19 11 37 16 38 5 2 4 10 -3 18 -12 14 -8 18
36 27 15 3 13 5 -7 6 -24 1 -28 5 -28 31 0 30 14 40 24 18 3 -7 3 0 -1 16 -3
16 -1 31 5 35 8 5 7 22 -3 61 -18 66 -17 63 -5 55 6 -4 10 6 10 22 1 27 1 28
16 8 12 -14 18 -16 21 -7 3 7 11 19 19 26 19 19 18 23 -6 36 -19 10 -20 9 -14
-14 4 -16 2 -26 -5 -26 -6 0 -11 5 -11 11 0 5 -4 7 -10 4 -13 -8 -13 1 -1 24
7 12 5 26 -4 44 -13 25 -12 27 5 27 17 0 19 5 13 33 l-6 32 25 -29 c14 -15 28
-24 31 -19 3 5 -10 21 -29 36 -28 23 -34 34 -34 65 1 36 1 36 13 12 9 -19 21
-26 50 -27 45 -3 50 14 6 19 -42 4 -60 31 -36 55 17 17 18 17 15 -7 -3 -21 2
-26 25 -28 15 -2 27 1 27 7 0 6 -6 10 -12 9 -8 -2 -14 11 -16 35 -2 20 1 37 7
37 6 0 9 23 7 58 -4 55 7 87 25 76 11 -7 11 7 1 24 -5 7 -16 10 -25 6 -9 -3
-17 -2 -17 4 0 13 -85 46 -99 38 -5 -4 -8 -13 -4 -21 6 -18 -15 -75 -28 -75
-5 0 -9 11 -9 25 l0 25 -135 0 c-83 0 -135 4 -135 10 0 6 -8 10 -17 11 -12 0
-13 2 -5 6 7 3 19 0 26 -7 11 -8 16 -8 21 0 5 7 37 11 89 10 105 -3 131 -1
123 6 -8 9 -576 10 -570 2z m749 -70 c-21 -12 -42 4 -32 21 5 8 13 8 28 0 20
-11 20 -12 4 -21z m-709 -45 c-3 -10 -5 -4 -5 12 0 17 2 24 5 18 2 -7 2 -21 0
-30z m-887 2 c0 -8 -4 -15 -10 -15 -5 0 -10 7 -10 15 0 8 5 15 10 15 6 0 10
-7 10 -15z m1584 0 c11 -8 16 -18 12 -22 -4 -4 -11 -1 -15 6 -5 7 -13 11 -18
8 -5 -3 -10 0 -10 8 0 19 7 18 31 0z m-1587 -72 c-3 -10 -5 -4 -5 12 0 17 2
24 5 18 2 -7 2 -21 0 -30z m203 -8 c0 -8 -4 -15 -10 -15 -5 0 -10 7 -10 15 0
8 5 15 10 15 6 0 10 -7 10 -15z m425 -5 c-6 -9 36 -15 95 -12 23 1 23 1 5 -8
-18 -8 -69 -5 -103 6 -12 3 -8 24 4 24 3 0 2 -4 -1 -10z m939 -6 c3 -9 6 -17
6 -18 0 -1 -9 -2 -20 -2 -11 0 -20 4 -20 8 0 4 5 8 11 8 5 0 7 5 4 10 -3 6 -2
10 3 10 6 0 13 -7 16 -16z m-989 -9 c-23 -8 -85 -10 -85 -3 0 4 21 8 48 7 26
0 43 -2 37 -4z m-270 -25 c3 -5 -9 -7 -32 -4 -49 6 -55 14 -10 14 20 0 38 -4
42 -10z m-77 -65 c-3 -3 -9 2 -12 12 -6 14 -5 15 5 6 7 -7 10 -15 7 -18z"/>
<path d="M2318 4473 c7 -3 16 -2 19 1 4 3 -2 6 -13 5 -11 0 -14 -3 -6 -6z"/>
<path d="M2543 4473 c9 -2 23 -2 30 0 6 3 -1 5 -18 5 -16 0 -22 -2 -12 -5z"/>
<path d="M2803 4473 c9 -2 25 -2 35 0 9 3 1 5 -18 5 -19 0 -27 -2 -17 -5z"/>
<path d="M2918 4473 c12 -2 30 -2 40 0 9 3 -1 5 -23 4 -22 0 -30 -2 -17 -4z"/>
<path d="M3818 4473 c6 -2 18 -2 25 0 6 3 1 5 -13 5 -14 0 -19 -2 -12 -5z"/>
<path d="M3996 4288 c-3 -13 -2 -26 3 -31 4 -4 8 6 9 23 1 36 -3 39 -12 8z"/>
<path d="M3946 4033 c-7 -17 21 -49 33 -37 3 3 -1 9 -8 14 -8 4 -11 15 -8 24
4 9 2 16 -2 16 -5 0 -12 -8 -15 -17z"/>
<path d="M3925 3880 c3 -5 8 -10 11 -10 2 0 4 5 4 10 0 6 -5 10 -11 10 -5 0
-7 -4 -4 -10z"/>
<path d="M3951 3764 c0 -11 3 -14 6 -6 3 7 2 16 -1 19 -3 4 -6 -2 -5 -13z"/>
<path d="M3900 3715 c-7 -8 -11 -15 -9 -16 34 -7 37 -5 36 12 -2 23 -10 24
-27 4z"/>
<path d="M3940 3669 c0 -11 4 -18 10 -14 5 3 7 12 3 20 -7 21 -13 19 -13 -6z"/>
<path d="M3896 3625 c4 -8 7 -15 9 -15 2 0 5 7 9 15 3 9 0 15 -9 15 -9 0 -12
-6 -9 -15z"/>
<path d="M3928 3606 c-3 -14 -1 -31 3 -38 7 -10 9 -10 9 2 0 8 3 25 6 38 4 12
2 22 -4 22 -5 0 -12 -11 -14 -24z"/>
<path d="M3892 3548 c-2 -49 7 -68 31 -68 20 1 21 2 5 14 -10 7 -18 24 -18 37
0 39 -17 55 -18 17z"/>
<path d="M3872 3339 c1 -12 8 -24 15 -26 7 -3 9 3 6 17 -8 29 -25 37 -21 9z"/>
<path d="M3880 3242 c0 -12 19 -26 26 -19 2 2 -2 10 -11 17 -9 8 -15 8 -15 2z"/>
<path d="M3860 2951 c0 -5 5 -13 10 -16 6 -3 10 -2 10 4 0 5 -4 13 -10 16 -5
3 -10 2 -10 -4z"/>
<path d="M3871 2904 c0 -11 3 -14 6 -6 3 7 2 16 -1 19 -3 4 -6 -2 -5 -13z"/>
<path d="M3800 2859 c0 -5 5 -7 10 -4 6 3 10 8 10 11 0 2 -4 4 -10 4 -5 0 -10
-5 -10 -11z"/>
<path d="M3811 2818 c8 -7 20 -20 27 -27 7 -9 12 -10 12 -4 0 15 -28 43 -43
43 -6 0 -5 -5 4 -12z"/>
<path d="M3841 2714 c0 -11 3 -14 6 -6 3 7 2 16 -1 19 -3 4 -6 -2 -5 -13z"/>
<path d="M3820 2617 c0 -14 5 -29 10 -32 7 -4 8 3 4 22 -9 38 -14 42 -14 10z"/>
<path d="M3790 2491 c0 -5 5 -13 10 -16 6 -3 10 -2 10 4 0 5 -4 13 -10 16 -5
3 -10 2 -10 -4z"/>
<path d="M3820 2410 c0 -5 5 -10 10 -10 6 0 10 5 10 10 0 6 -4 10 -10 10 -5 0
-10 -4 -10 -10z"/>
<path d="M3805 2300 c3 -5 8 -10 11 -10 2 0 4 5 4 10 0 6 -5 10 -11 10 -5 0
-7 -4 -4 -10z"/>
<path d="M3781 2274 c0 -11 3 -14 6 -6 3 7 2 16 -1 19 -3 4 -6 -2 -5 -13z"/>
<path d="M3812 2250 c0 -19 2 -27 5 -17 2 9 2 25 0 35 -3 9 -5 1 -5 -18z"/>
<path d="M3811 2184 c0 -11 3 -14 6 -6 3 7 2 16 -1 19 -3 4 -6 -2 -5 -13z"/>
<path d="M3745 2050 c-3 -6 1 -13 9 -16 10 -4 16 -18 16 -39 0 -19 4 -36 9
-39 4 -3 7 12 6 33 -2 40 -28 80 -40 61z"/>
<path d="M3769 1888 c-7 -29 -4 -72 6 -82 7 -7 15 -21 18 -32 4 -17 5 -17 6 3
0 12 -4 25 -10 29 -6 3 -9 17 -6 30 2 14 0 27 -5 30 -4 3 -6 10 -3 15 4 5 4 9
1 9 -3 0 -6 -1 -7 -2z"/>
<path d="M3752 1715 c0 -16 2 -22 5 -12 2 9 2 23 0 30 -3 6 -5 -1 -5 -18z"/>
<path d="M1542 343 c-10 -4 -10 -8 -1 -19 13 -16 35 -18 44 -5 7 12 -25 30
-43 24z"/>
<path d="M1560 290 c0 -5 9 -10 21 -10 11 0 17 5 14 10 -3 6 -13 10 -21 10 -8
0 -14 -4 -14 -10z"/>
<path d="M2015 240 c3 -5 15 -10 26 -10 10 0 19 5 19 10 0 6 -12 10 -26 10
-14 0 -23 -4 -19 -10z"/>
<path d="M2105 202 c-10 -11 -4 -19 35 -51 28 -22 46 -30 60 -26 22 7 26 25 8
43 -9 9 -16 8 -30 -5 -10 -9 -18 -11 -18 -6 0 6 7 13 15 17 32 12 16 33 -25
33 -22 0 -42 -2 -45 -5z"/>
<path d="M2247 139 c-9 -6 -15 -14 -12 -20 4 -5 -1 -9 -9 -9 -9 0 -16 -4 -16
-10 0 -16 30 -27 61 -22 23 3 28 8 24 22 -3 10 -1 22 6 25 8 6 7 10 -2 16 -18
11 -30 11 -52 -2z"/>
<path d="M2310 50 c0 -6 7 -10 15 -10 8 0 15 2 15 4 0 2 -7 6 -15 10 -8 3 -15
1 -15 -4z"/>
</g>
</svg>

